<?xml version="1.0" standalone="no"?>
<!DOCTYPE svg PUBLIC "-//W3C//DTD SVG 20010904//EN"
 "http://www.w3.org/TR/2001/REC-SVG-20010904/DTD/svg10.dtd">
<svg version="1.0" xmlns="http://www.w3.org/2000/svg"
 width="353.000000pt" height="130.000000pt" viewBox="0 0 353.000000 130.000000"
 preserveAspectRatio="xMidYMid meet">
<metadata>
Created by potrace 1.16, written by Peter Selinger 2001-2019
</metadata>
<g transform="translate(0.000000,130.000000) scale(0.100000,-0.100000)"
fill="#000000" stroke="none">
<path d="M0 650 l0 -650 1765 0 1765 0 0 650 0 650 -1765 0 -1765 0 0 -650z
m744 360 l131 0 33 -73 c50 -111 38 -140 -29 -71 -65 68 -111 87 -208 88 l-86
1 -3 -97 c-1 -54 0 -98 3 -98 3 0 18 12 33 26 57 55 154 72 192 34 33 -33 24
-130 -11 -130 -4 0 -9 17 -11 38 -3 34 -6 37 -35 40 -41 4 -104 -51 -140 -121
-28 -56 -37 -157 -16 -178 21 -21 128 -24 179 -4 53 20 109 66 130 106 8 16
19 29 24 29 19 0 10 -51 -22 -125 l-32 -75 -266 0 c-213 1 -261 3 -244 13 12
7 35 24 53 39 l31 27 0 188 c0 166 3 193 20 232 11 24 20 47 20 51 0 13 -69 0
-118 -21 -50 -21 -72 -62 -72 -136 0 -96 24 -141 105 -201 40 -29 21 -42 -43
-30 -52 9 -96 45 -118 97 -17 40 -20 175 -5 213 16 43 86 104 133 117 57 16
176 30 212 25 16 -2 88 -4 160 -4z m710 -16 c40 -39 24 -104 -30 -124 -35 -14
-41 -13 -64 10 -25 25 -27 86 -3 112 20 22 76 24 97 2z m984 -102 c3 -61 3
-62 32 -62 16 0 32 -5 35 -11 9 -14 -24 -49 -47 -49 -17 0 -18 -10 -18 -126
l0 -125 29 20 c63 45 75 15 19 -49 -52 -59 -89 -66 -129 -24 -23 24 -24 33
-27 165 -3 129 -5 139 -23 139 -31 0 -23 36 14 57 20 12 44 42 62 76 17 32 35
55 40 54 6 -2 11 -31 13 -65z m214 -75 c15 -12 52 -69 82 -127 53 -102 55
-104 65 -77 20 53 14 87 -24 121 l-35 33 23 34 c43 64 113 42 139 -42 13 -46
2 -78 -74 -205 -75 -124 -98 -178 -98 -223 0 -106 84 -144 133 -60 9 17 21 27
27 24 19 -12 10 -55 -19 -87 -28 -31 -33 -33 -110 -36 -79 -4 -81 -4 -112 27
-29 29 -31 36 -27 86 4 41 14 68 47 119 33 50 41 70 35 88 -14 47 -108 220
-121 225 -8 3 -32 -1 -54 -10 -37 -14 -41 -14 -46 0 -7 18 105 133 129 133 7
0 25 -10 40 -23z m496 13 c17 0 32 -4 32 -8 0 -14 -32 -102 -37 -102 -2 0 -19
12 -38 26 -24 18 -43 24 -67 22 -53 -5 -39 -27 42 -67 90 -45 114 -80 106
-150 -17 -130 -212 -162 -261 -43 -34 81 -4 126 37 57 35 -61 126 -91 142 -48
9 22 2 29 -74 68 -86 46 -101 63 -107 119 -11 95 34 140 132 131 33 -3 75 -5
93 -5z m-2080 -12 c5 -7 13 -27 16 -45 l7 -31 44 44 c36 35 51 44 79 44 40 0
66 -28 66 -71 0 -34 -84 -137 -112 -139 -4 0 -4 23 -1 50 7 64 -9 66 -55 6
-18 -24 -22 -42 -22 -107 0 -74 -1 -79 -28 -98 -16 -11 -40 -23 -55 -26 l-27
-7 0 146 c0 142 -1 146 -19 136 -27 -14 -31 -13 -31 8 0 9 19 36 41 60 42 43
77 54 97 30z m376 -10 c13 -18 16 -52 16 -160 0 -76 4 -138 8 -138 4 0 13 5
20 12 9 9 15 9 23 1 8 -8 3 -19 -18 -42 -36 -40 -79 -48 -113 -22 -23 19 -25
25 -28 155 l-4 136 -24 -6 c-36 -9 -30 18 11 55 43 38 87 41 109 9z m417 -130
c-1 -81 0 -152 4 -157 4 -7 12 -7 25 1 26 16 36 4 24 -30 -21 -60 -100 -63
-149 -6 l-23 27 -29 -21 c-17 -12 -36 -28 -43 -37 -27 -33 -88 -10 -119 46
-45 79 -1 230 83 285 52 35 85 43 166 41 l64 -2 -3 -147z m173 136 c9 -8 16
-30 16 -47 l0 -31 43 41 c66 65 126 70 146 11 6 -17 11 -87 11 -154 0 -68 4
-124 8 -124 4 0 13 5 20 12 9 9 15 9 24 0 8 -8 2 -20 -24 -46 -42 -42 -86 -48
-118 -16 -18 18 -20 33 -20 140 0 66 -3 120 -7 120 -13 0 -28 -14 -56 -51 -24
-32 -27 -45 -27 -112 0 -70 -2 -77 -26 -96 -15 -12 -34 -21 -43 -21 -36 0 -41
21 -41 156 l0 131 -25 -5 c-37 -7 -31 13 19 63 46 47 74 55 100 29z"/>
<path d="M1710 757 c-50 -25 -81 -147 -44 -178 13 -11 21 -10 49 5 34 18 34
19 37 102 3 89 1 93 -42 71z"/>
</g>
</svg>
